<svg width="210" height="256" viewBox="0 0 210 256" version="1.1" xmlns="http://www.w3.org/2000/svg" xmlns:xlink="http://www.w3.org/1999/xlink" xmlns:figma="http://www.figma.com/figma/ns">
<title>waffle-logo</title>
<desc>Created using Figma</desc>
<g id="Canvas" transform="translate(-375 -590)" figma:type="canvas">
<g id="waffle-logo" style="mix-blend-mode:normal;" figma:type="frame">
<g id="Vector 2 (Stroke)" style="mix-blend-mode:normal;" figma:type="vector">
<use xlink:href="#path0_fill" transform="translate(375.273 590)" fill="#FFB448" style="mix-blend-mode:normal;"/>
</g>
</g>
</g>
<defs>
<path id="path0_fill" fill-rule="evenodd" d="M 0 0L 11.6364 0L 58.1818 0L 104.727 0L 151.273 0L 197.818 0L 209.455 0L 209.455 11.6364L 209.455 58.1818L 209.455 104.727L 209.455 151.273L 209.455 197.818L 209.455 244.364L 209.455 256L 197.818 256L 151.273 256L 104.727 256L 58.1818 256L 11.6364 256L 0 256L 0 244.364L 0 197.818L 0 151.273L 0 104.727L 0 58.1818L 0 11.6364L 0 0ZM 23.2727 23.2727L 23.2727 46.5455L 46.5455 46.5455L 46.5455 23.2727L 23.2727 23.2727ZM 69.8182 23.2727L 69.8182 46.5455L 93.0909 46.5455L 93.0909 23.2727L 69.8182 23.2727ZM 116.364 23.2727L 116.364 46.5455L 139.636 46.5455L 139.636 23.2727L 116.364 23.2727ZM 162.909 23.2727L 162.909 46.5455L 186.182 46.5455L 186.182 23.2727L 162.909 23.2727ZM 186.182 69.8182L 162.909 69.8182L 162.909 93.0909L 186.182 93.0909L 186.182 69.8182ZM 186.182 116.364L 162.909 116.364L 162.909 139.636L 186.182 139.636L 186.182 116.364ZM 186.182 162.909L 162.909 162.909L 162.909 186.182L 186.182 186.182L 186.182 162.909ZM 186.182 209.455L 162.909 209.455L 162.909 232.727L 186.182 232.727L 186.182 209.455ZM 139.636 232.727L 139.636 209.455L 116.364 209.455L 116.364 232.727L 139.636 232.727ZM 93.0909 232.727L 93.0909 209.455L 69.8182 209.455L 69.8182 232.727L 93.0909 232.727ZM 46.5455 232.727L 46.5455 209.455L 23.2727 209.455L 23.2727 232.727L 46.5455 232.727ZM 23.2727 186.182L 46.5455 186.182L 46.5455 162.909L 23.2727 162.909L 23.2727 186.182ZM 23.2727 139.636L 46.5455 139.636L 46.5455 116.364L 23.2727 116.364L 23.2727 139.636ZM 23.2727 93.0909L 46.5455 93.0909L 46.5455 69.8182L 23.2727 69.8182L 23.2727 93.0909ZM 69.8182 69.8182L 69.8182 93.0909L 93.0909 93.0909L 93.0909 69.8182L 69.8182 69.8182ZM 116.364 69.8182L 116.364 93.0909L 139.636 93.0909L 139.636 69.8182L 116.364 69.8182ZM 139.636 116.364L 116.364 116.364L 116.364 139.636L 139.636 139.636L 139.636 116.364ZM 139.636 162.909L 116.364 162.909L 116.364 186.182L 139.636 186.182L 139.636 162.909ZM 93.0909 186.182L 93.0909 162.909L 69.8182 162.909L 69.8182 186.182L 93.0909 186.182ZM 69.8182 139.636L 93.0909 139.636L 93.0909 116.364L 69.8182 116.364L 69.8182 139.636Z"/>
</defs>
</svg>
